<svg version="1.1" id="Layer_1" xmlns="http://www.w3.org/2000/svg" xmlns:xlink="http://www.w3.org/1999/xlink" x="0px" y="0px"
	 width="100%" viewBox="0 0 168 117" enable-background="new 0 0 168 117" xml:space="preserve">
<path fill="#FFFFFF" opacity="1.000000" stroke="none" 
	d="
M104.000000,118.000000 
	C69.363327,118.000000 35.226654,118.000000 1.044990,118.000000 
	C1.044990,79.064270 1.044990,40.128483 1.044990,1.096345 
	C56.886463,1.096345 112.773148,1.096345 168.829926,1.096345 
	C168.829926,39.999405 168.829926,78.999634 168.829926,118.000000 
	C147.462204,118.000000 125.981102,118.000000 104.000000,118.000000 
M77.500000,104.003105 
	C92.247414,104.003105 106.994827,104.003105 121.775345,104.003105 
	C121.775345,88.266045 121.775345,73.163567 121.775345,57.857788 
	C120.149712,57.584675 118.653412,57.333294 116.880775,57.035488 
	C123.169479,49.181122 127.576469,41.390366 125.106018,31.071642 
	C122.446411,19.962812 112.755524,10.436326 102.629379,9.997296 
	C87.100578,9.324027 76.789452,15.921553 72.980026,28.968292 
	C71.803490,32.997753 69.750977,33.574345 66.925224,30.439468 
	C62.061699,25.043884 56.439396,21.736643 48.842167,21.931814 
	C38.501961,22.197454 29.584955,29.020754 27.190758,39.051434 
	C24.777428,49.162277 30.196539,59.938778 39.918941,64.438324 
	C41.399574,65.123566 42.804596,65.972191 44.244587,66.745247 
	C44.089828,67.302742 43.935070,67.860237 43.780312,68.417732 
	C39.607998,67.915466 35.435688,67.413200 30.531355,66.822807 
	C32.635391,71.236961 34.414314,74.969040 35.973190,78.239471 
	C38.820087,77.248825 41.140274,76.441460 44.190063,75.380211 
	C44.190063,85.660995 44.190063,94.738052 44.190063,104.003105 
	C55.224564,104.003105 65.862282,104.003105 77.500000,104.003105 
M133.824997,83.952644 
	C138.104904,86.450150 142.384796,88.947662 147.266220,91.796188 
	C147.266220,85.106293 147.266220,79.174110 147.266220,73.241928 
	C147.266220,67.339180 147.266220,61.436432 147.266220,54.803665 
	C143.012115,57.393238 139.629959,60.197948 135.741989,61.608356 
	C131.876678,63.010544 127.502953,63.011261 123.289680,63.635811 
	C123.289680,70.193779 123.289680,76.896965 123.289680,83.892975 
	C126.705078,83.892975 129.830200,83.892975 133.824997,83.952644 
z"/>
<path fill="#020202" opacity="1.000000" stroke="none" 
	d="
M77.000000,104.003105 
	C65.862282,104.003105 55.224564,104.003105 44.190063,104.003105 
	C44.190063,94.738052 44.190063,85.660995 44.190063,75.380211 
	C41.140274,76.441460 38.820087,77.248825 35.973190,78.239471 
	C34.414314,74.969040 32.635391,71.236961 30.531355,66.822807 
	C35.435688,67.413200 39.607998,67.915466 43.780312,68.417732 
	C43.935070,67.860237 44.089828,67.302742 44.244587,66.745247 
	C42.804596,65.972191 41.399574,65.123566 39.918941,64.438324 
	C30.196539,59.938778 24.777428,49.162277 27.190758,39.051434 
	C29.584955,29.020754 38.501961,22.197454 48.842167,21.931814 
	C56.439396,21.736643 62.061699,25.043884 66.925224,30.439468 
	C69.750977,33.574345 71.803490,32.997753 72.980026,28.968292 
	C76.789452,15.921553 87.100578,9.324027 102.629379,9.997296 
	C112.755524,10.436326 122.446411,19.962812 125.106018,31.071642 
	C127.576469,41.390366 123.169479,49.181122 116.880775,57.035488 
	C118.653412,57.333294 120.149712,57.584675 121.775345,57.857788 
	C121.775345,73.163567 121.775345,88.266045 121.775345,104.003105 
	C106.994827,104.003105 92.247414,104.003105 77.000000,104.003105 
M87.662254,27.331282 
	C82.691353,34.577866 83.888214,42.633522 90.627075,47.286419 
	C96.775871,51.531898 105.134628,50.090786 109.539825,44.025719 
	C113.599182,38.436798 112.647087,30.628464 107.303436,25.684629 
	C101.608482,20.415771 95.003120,20.777187 87.662254,27.331282 
M43.175995,52.735954 
	C43.775719,52.984554 44.361469,53.276554 44.977383,53.474861 
	C49.781891,55.021824 54.164494,54.380608 57.541637,50.435196 
	C60.521435,46.953976 62.439774,43.328445 59.408817,38.555607 
	C56.605293,34.140915 53.253414,31.158747 47.852837,32.076439 
	C43.734787,32.776199 40.425331,34.674015 38.830471,39.187946 
	C36.896259,44.662346 38.552799,48.656494 43.175995,52.735954 
M80.603401,57.863464 
	C78.114647,55.248211 75.625885,52.632961 73.137131,50.017708 
	C71.169441,52.317081 69.201752,54.616455 67.234055,56.915829 
	C67.601601,57.273067 67.969139,57.630310 68.336685,57.987549 
	C72.146049,57.987549 75.955406,57.987549 80.603401,57.863464 
z"/>
<path fill="#020202" opacity="1.000000" stroke="none" 
	d="
M133.390167,83.922806 
	C129.830200,83.892975 126.705078,83.892975 123.289680,83.892975 
	C123.289680,76.896965 123.289680,70.193779 123.289680,63.635811 
	C127.502953,63.011261 131.876678,63.010544 135.741989,61.608356 
	C139.629959,60.197948 143.012115,57.393238 147.266220,54.803665 
	C147.266220,61.436432 147.266220,67.339180 147.266220,73.241928 
	C147.266220,79.174110 147.266220,85.106293 147.266220,91.796188 
	C142.384796,88.947662 138.104904,86.450150 133.390167,83.922806 
z"/>
<path fill="#FDFDFD" opacity="1.000000" stroke="none" 
	d="
M87.901566,27.032196 
	C95.003120,20.777187 101.608482,20.415771 107.303436,25.684629 
	C112.647087,30.628464 113.599182,38.436798 109.539825,44.025719 
	C105.134628,50.090786 96.775871,51.531898 90.627075,47.286419 
	C83.888214,42.633522 82.691353,34.577866 87.901566,27.032196 
z"/>
<path fill="#FEFEFE" opacity="1.000000" stroke="none" 
	d="
M42.907463,52.441223 
	C38.552799,48.656494 36.896259,44.662346 38.830471,39.187946 
	C40.425331,34.674015 43.734787,32.776199 47.852837,32.076439 
	C53.253414,31.158747 56.605293,34.140915 59.408817,38.555607 
	C62.439774,43.328445 60.521435,46.953976 57.541637,50.435196 
	C54.164494,54.380608 49.781891,55.021824 44.977383,53.474861 
	C44.361469,53.276554 43.775719,52.984554 42.907463,52.441223 
z"/>
<path fill="#FFFFFF" opacity="1.000000" stroke="none" 
	d="
M80.184082,57.925507 
	C75.955406,57.987549 72.146049,57.987549 68.336685,57.987549 
	C67.969139,57.630310 67.601601,57.273067 67.234055,56.915829 
	C69.201752,54.616455 71.169441,52.317081 73.137131,50.017708 
	C75.625885,52.632961 78.114647,55.248211 80.184082,57.925507 
z"/>
</svg>